<svg width="844" height="597" viewBox="0 0 844 597" fill="none" xmlns="http://www.w3.org/2000/svg">
<g clip-path="url(#clip0_730_327)">
<rect width="595" height="842" transform="translate(843.398 1.98267) rotate(90.1349)" fill="white"/>
<path d="M842 -7.78663e-08L0 0L1.36867e-08 148L842 148L842 -7.78663e-08Z" fill="url(#paint0_linear_730_327)" fill-opacity="0.17"/>
<path d="M101.494 60.9178C99.8147 59.8122 97.8216 59.2825 95.8152 59.4085C93.8088 59.5344 91.8976 60.3093 90.37 61.6162C90.1125 59.545 89.4271 57.5501 88.3573 55.758C87.2876 53.9659 85.8568 52.4158 84.1559 51.2063C81.5881 49.3369 78.4399 48.4074 75.5537 49.4088C78.481 48.5974 81.5059 49.7272 83.8991 51.6839C87.6738 54.981 89.7537 60.7688 88.6239 66.3718C88.7061 65.4782 90.4368 63.8451 90.9914 63.2904C91.8733 62.4359 92.8968 61.7408 94.0163 61.2362C95.1653 60.7117 96.4194 60.4579 97.682 60.4944C98.9445 60.5309 100.182 60.8567 101.299 61.4467C104.313 62.9874 106.706 66.0688 108.001 69.7716C106.855 66.0123 104.56 62.6741 101.494 60.9178Z" fill="black"/>
<path d="M72.0818 75.9292C69.3137 76.6687 66.6791 79.2109 65.6468 82.7031C62.4216 82.0355 59.2427 83.1293 56.5876 84.896C54.086 86.4106 52.1296 88.6798 51 91.3772C52.2283 88.8029 54.2619 86.6989 56.793 85.3839C59.4224 84.0794 64.4502 82.7031 66.7818 85.5482C66.4223 81.6246 69.3496 77.701 72.2256 76.4479C74.5252 75.4542 77.1153 75.3661 79.4771 76.2014C77.1345 75.1815 74.493 75.0843 72.0818 75.9292Z" fill="black"/>
<path d="M784.531 60.9178C782.852 59.8122 780.859 59.2825 778.852 59.4085C776.846 59.5344 774.935 60.3093 773.407 61.6162C773.15 59.545 772.464 57.5501 771.394 55.758C770.325 53.9659 768.894 52.4158 767.193 51.2063C764.625 49.3369 761.477 48.4074 758.591 49.4088C761.518 48.5974 764.543 49.7272 766.936 51.6839C770.711 54.981 772.791 60.7688 771.661 66.3718C771.743 65.4782 773.474 63.8451 774.029 63.2904C774.91 62.4359 775.934 61.7408 777.053 61.2362C778.202 60.7117 779.457 60.4579 780.719 60.4944C781.982 60.5309 783.219 60.8567 784.336 61.4467C787.35 62.9874 789.744 66.0688 791.038 69.7716C789.892 66.0123 787.597 62.6741 784.531 60.9178Z" fill="black"/>
<path d="M755.119 75.9292C752.351 76.6687 749.716 79.2109 748.684 82.7031C745.459 82.0355 742.28 83.1293 739.625 84.896C737.123 86.4106 735.167 88.6798 734.037 91.3772C735.265 88.8029 737.299 86.6989 739.83 85.3839C742.46 84.0794 747.487 82.7031 749.819 85.5482C749.459 81.6246 752.387 77.701 755.263 76.4479C757.562 75.4542 760.152 75.3661 762.514 76.2014C760.172 75.1815 757.53 75.0843 755.119 75.9292Z" fill="black"/>
<path d="M787.511 598.157C787.511 598.157 782.325 577.783 766.83 564.153L768.446 563.514C768.446 563.514 779.413 571.178 792.41 596.177L787.511 598.157Z" fill="#F68915"/>
<path d="M665.154 761C656.275 725.315 661.752 687.572 680.407 655.882C699.19 624.024 729.556 600.656 765.162 590.658C800.768 580.66 838.86 584.807 871.481 602.231C903.924 619.577 928.272 648.952 939.299 684.049L803.344 726.51L665.154 761Z" fill="#F68915"/>
<path d="M792.473 590.665C792.473 590.665 795.629 556.987 778.984 528.417L781.098 528.277C781.098 528.277 792.774 545.567 799.889 590.199L792.473 590.665Z" fill="#F68915"/>
<path d="M784.879 530.8C784.461 530.825 784.055 530.945 783.691 531.151C783.697 531.06 783.697 530.968 783.691 530.876C783.609 530.196 783.27 529.573 782.743 529.135C782.216 528.698 781.541 528.479 780.858 528.524C780.174 528.569 779.534 528.874 779.069 529.377C778.604 529.88 778.349 530.543 778.358 531.228C778.823 531.388 779.232 531.683 779.531 532.074C779.83 532.466 780.007 532.937 780.04 533.428C780.073 533.92 779.96 534.411 779.715 534.838C779.47 535.266 779.105 535.612 778.664 535.833C778.735 536.501 779.055 537.119 779.561 537.562C780.067 538.005 780.72 538.242 781.393 538.225C782.065 538.208 782.706 537.939 783.189 537.471C783.671 537.003 783.96 536.37 783.997 535.699C784.384 535.853 784.801 535.919 785.217 535.89C785.553 535.868 785.881 535.78 786.182 535.631C786.483 535.482 786.753 535.275 786.974 535.022C787.196 534.769 787.365 534.475 787.473 534.157C787.581 533.838 787.625 533.502 787.603 533.166C787.581 532.831 787.492 532.503 787.344 532.201C787.195 531.9 786.988 531.631 786.735 531.409C786.482 531.188 786.188 531.018 785.869 530.91C785.551 530.802 785.214 530.758 784.879 530.781L784.879 530.8Z" fill="#F68915"/>
<path d="M785.186 527.752C786.188 526.847 787.272 526.039 788.425 525.337L789.843 523.632L789.37 524.795C790.742 524.057 792.178 523.448 793.662 522.974L794.812 521.882L794.333 522.783C795.509 522.441 796.706 522.175 797.916 521.984L799.985 520.068L798.97 521.812C800.914 521.563 802.879 521.516 804.833 521.671C794.333 512.666 783.475 524.092 783.475 524.092C784.06 522.823 784.748 521.603 785.531 520.445L786.17 518.229L786.234 519.506C787.483 517.839 788.97 516.365 790.647 515.131L791.452 513.26L791.324 514.665C793.581 513.103 796.174 512.097 798.893 511.727C783.826 507.645 780.652 522.086 780.652 522.086C775.746 514.856 768.797 514.486 768.797 514.486C769.874 514.964 770.891 515.569 771.825 516.287L773.153 516.485L772.234 516.613C773.257 517.472 774.163 518.462 774.929 519.557L775.919 519.972L775.159 519.889C775.855 520.905 776.408 522.012 776.8 523.179C766.581 513.279 754.803 519.519 754.803 519.519C756.773 519.269 758.767 519.289 760.731 519.576L762.148 518.995L761.325 519.634C762.66 519.852 763.979 520.162 765.272 520.56L767.386 520.19L766.108 520.828C767.245 521.198 768.362 521.624 769.455 522.106L770.975 521.844L769.973 522.342C771.215 522.903 772.42 523.543 773.581 524.258C757.473 519.276 751.686 529.725 751.686 529.725C753.094 528.838 754.63 528.175 756.24 527.758L758.067 525.912L757.243 527.515C759.946 526.987 762.713 526.868 765.451 527.164L767.092 526.525L766.172 527.273C767.932 527.482 769.671 527.836 771.371 528.333C751.572 529.125 752.919 548.989 752.919 548.989C754.482 545.351 756.598 541.977 759.191 538.987L760.073 536.745L759.99 538.131C761.499 536.546 763.26 535.221 765.201 534.209L765.783 532.734L765.706 533.966C766.827 533.402 768.045 533.058 769.296 532.951C758.323 542.244 762.813 555.446 762.813 555.446C763.255 551.604 764.287 547.853 765.872 544.326L765.815 541.714L766.37 543.298C767.338 541.374 768.523 539.567 769.902 537.914L769.845 535.448L770.484 537.256C771.752 535.795 773.252 534.552 774.923 533.577C765.425 545.674 771.665 555.721 771.665 555.721C771.665 553.974 771.81 552.231 772.099 550.509L771.365 548.331L772.272 549.557C772.499 548.438 772.784 547.331 773.128 546.242L772.425 544.16L773.383 545.437C773.692 544.545 774.046 543.669 774.443 542.812L773.479 539.97L774.891 541.886C775.329 540.996 775.838 540.142 776.411 539.331L781.859 532.638C784.498 532.121 787.187 531.907 789.875 531.999L791.388 530.843L790.545 532.031C792.485 532.142 794.41 532.439 796.294 532.919L797.443 532.472L796.728 533.04C798.953 533.595 801.072 534.512 803 535.755C798.682 525.778 785.186 527.752 785.186 527.752Z" fill="#F68915"/>
<path d="M806.411 589.561C806.411 589.561 802.132 568.982 810.077 549.961L808.333 550.076C808.333 550.076 801.844 561.777 801.135 589.937L806.411 589.561Z" fill="#F68915"/>
<path d="M814.113 551.047C814.729 551.018 815.344 551.107 815.927 551.309L815.812 550.708L816.195 551.392C817.207 551.758 818.152 552.289 818.992 552.963L818.858 552.292L819.44 553.327C820.897 554.62 822.148 556.128 823.15 557.798C823.15 557.798 822.512 548.013 812.797 548.92C813.597 548.575 814.424 548.295 815.269 548.083L814.771 547.777L815.62 547.994C816.935 547.671 818.292 547.548 819.644 547.63L819.139 546.902L820.148 547.687C820.96 547.778 821.753 547.993 822.499 548.326C822.499 548.326 818.992 543.606 811.462 547.087C811.981 546.657 812.527 546.263 813.097 545.905L812.573 545.726L813.334 545.758C813.833 545.446 814.349 545.16 814.879 544.902L814.24 544.672L815.294 544.717C815.899 544.438 816.522 544.201 817.159 544.008L816.719 543.734L817.447 543.925C818.386 543.656 819.357 543.516 820.334 543.51C820.334 543.51 814.177 541.23 809.84 546.704C809.953 546.109 810.148 545.532 810.421 544.992L810.057 545.081L810.51 544.813C810.814 544.229 811.195 543.688 811.641 543.203L811.181 543.203L811.82 543.025C812.224 542.611 812.679 542.251 813.174 541.952C812.019 542.265 810.947 542.827 810.033 543.6C809.12 544.372 808.386 545.336 807.885 546.422C807.885 546.422 805.394 539.588 798.305 542.59C799.659 542.607 800.989 542.944 802.188 543.574L802.041 542.897L802.552 543.759C803.45 544.253 804.272 544.875 804.992 545.605L804.935 544.966L805.382 546.014C805.84 546.523 806.254 547.07 806.621 547.649C806.621 547.649 800.579 542.782 796.037 547.866C796.982 547.662 797.945 547.555 798.912 547.547L798.273 546.767L799.423 547.553C800.026 547.566 800.627 547.617 801.224 547.706L800.93 547.304L801.569 547.764C802.324 547.906 803.064 548.12 803.779 548.402L803.472 547.866L804.277 548.607C804.889 548.873 805.475 549.196 806.027 549.571C806.027 549.571 799.314 549.495 797.845 554.636C798.704 553.906 799.677 553.321 800.726 552.905L800.342 552.675L800.936 552.816C801.824 552.46 802.743 552.19 803.683 552.011L803.191 551.481L804.008 551.947C805.314 551.728 806.641 551.659 807.962 551.743L811.053 554.655C811.391 555.011 811.697 555.396 811.967 555.805L812.529 554.783L812.248 556.233C812.465 556.584 812.701 556.987 812.931 557.446L813.314 556.75L813.11 557.817C813.354 558.323 813.568 558.843 813.749 559.375L814.113 558.737L813.896 559.848C814.149 560.668 814.333 561.507 814.445 562.358C814.445 562.358 816.834 557.05 811.411 551.768C812.292 552.134 813.105 552.643 813.819 553.276L814.011 552.35L814.145 553.557C814.929 554.274 815.628 555.08 816.227 555.958L816.399 555.147L816.533 556.425C817.542 558.04 818.292 559.802 818.756 561.649C818.756 561.649 820.078 554.866 814.113 551.047Z" fill="#F68915"/>
<path d="M763.699 566.944C763.133 567.186 762.62 567.536 762.186 567.972L762.026 567.391L761.981 568.17C761.232 568.944 760.615 569.835 760.155 570.808L759.982 570.169L759.918 571.357C759.175 573.158 758.712 575.062 758.545 577.004C758.545 577.004 754.841 567.934 763.948 564.491C763.089 564.53 762.234 564.641 761.394 564.824L761.707 564.325L761.068 564.894C759.744 565.182 758.471 565.668 757.293 566.337L757.427 565.456L756.865 566.606C756.176 567.048 755.559 567.595 755.039 568.228C755.039 568.228 756.118 562.479 764.415 562.269C763.761 562.112 763.097 561.999 762.428 561.93L762.818 561.534L762.179 561.898C761.649 561.847 761.049 561.809 760.41 561.809L760.908 561.311L759.982 561.815C759.315 561.829 758.649 561.889 757.989 561.994L758.27 561.553L757.702 562.045C756.739 562.215 755.804 562.516 754.924 562.939C754.924 562.939 759.458 558.194 765.782 561.228C765.415 560.747 764.985 560.317 764.504 559.95L764.875 559.874L764.351 559.835C763.822 559.443 763.244 559.121 762.633 558.877L763.042 558.673L762.403 558.788C761.856 558.595 761.287 558.471 760.71 558.417C761.887 558.193 763.099 558.23 764.26 558.526C765.421 558.822 766.503 559.369 767.429 560.129C767.429 560.129 766.669 552.886 774.34 552.465C773.125 553.063 772.066 553.938 771.249 555.019L771.083 554.381L771.006 555.377C770.412 556.213 769.945 557.132 769.62 558.104L769.39 557.517L769.454 558.654C769.265 559.314 769.133 559.989 769.058 560.672C769.058 560.672 772.354 553.646 778.639 556.201C777.701 556.434 776.789 556.761 775.918 557.178L776.122 556.207L775.452 557.415C774.915 557.69 774.397 557.999 773.899 558.341L773.989 557.849L773.638 558.532C773.015 558.982 772.437 559.491 771.913 560.052L771.951 559.414L771.555 560.429C771.124 560.939 770.739 561.486 770.406 562.064C770.406 562.064 776.41 559.056 779.986 563.029C778.892 562.75 777.759 562.651 776.633 562.735L776.876 562.358L776.41 562.748C775.456 562.818 774.51 562.978 773.587 563.227L773.791 562.537L773.267 563.316C771.996 563.692 770.773 564.213 769.62 564.868L768.119 568.841C767.976 569.309 767.871 569.787 767.806 570.272L766.855 569.633L767.742 570.808C767.698 571.217 767.666 571.683 767.659 572.201L767.021 571.741L767.659 572.609C767.666 573.171 767.704 573.732 767.774 574.289L767.136 573.855L767.819 574.755C767.959 575.607 768.173 576.445 768.458 577.259C768.458 577.259 763.987 573.535 766.542 566.401C765.911 567.115 765.404 567.929 765.041 568.809L764.459 568.062L764.868 569.205C764.48 570.192 764.208 571.221 764.057 572.271L763.546 571.632L763.98 572.846C763.786 574.738 763.885 576.649 764.274 578.511C764.274 578.511 760.02 572.993 763.699 566.944Z" fill="#F68915"/>
<path d="M33.7875 598.157C33.7875 598.157 38.9738 577.783 54.4688 564.153L52.8528 563.514C52.8528 563.514 41.8863 571.178 28.8887 596.177L33.7875 598.157Z" fill="#F68915"/>
<path d="M156.144 761C165.024 725.315 159.547 687.572 140.892 655.882C122.109 624.024 91.7426 600.656 56.1366 590.658C20.5306 580.66 -17.5613 584.807 -50.1825 602.231C-82.6252 619.577 -106.973 648.952 -118 684.049L17.9545 726.51L156.144 761Z" fill="#F68915"/>
<path d="M28.8255 590.665C28.8255 590.665 25.6703 556.987 42.3149 528.417L40.2008 528.277C40.2008 528.277 28.5253 545.567 21.4102 590.199L28.8255 590.665Z" fill="#F68915"/>
<path d="M36.4201 530.8C36.8377 530.825 37.2441 530.945 37.6081 531.151C37.6017 531.06 37.6017 530.968 37.6081 530.876C37.6895 530.196 38.0286 529.573 38.5557 529.135C39.0828 528.698 39.7576 528.479 40.4412 528.524C41.1248 528.569 41.7651 528.874 42.2302 529.377C42.6953 529.88 42.9498 530.543 42.9413 531.228C42.4754 531.388 42.0673 531.683 41.768 532.074C41.4688 532.466 41.2917 532.937 41.259 533.428C41.2262 533.92 41.3393 534.411 41.584 534.838C41.8288 535.266 42.1942 535.612 42.6347 535.833C42.5636 536.501 42.2434 537.119 41.7378 537.562C41.2323 538.005 40.5784 538.242 39.9063 538.225C39.2341 538.208 38.5929 537.939 38.1103 537.471C37.6277 537.003 37.3389 536.37 37.3015 535.699C36.9145 535.853 36.4975 535.919 36.0816 535.89C35.7461 535.868 35.4182 535.78 35.1168 535.631C34.8153 535.482 34.5462 535.275 34.3246 535.022C34.1031 534.769 33.9336 534.475 33.8257 534.157C33.7179 533.838 33.6738 533.502 33.696 533.166C33.7183 532.831 33.8064 532.503 33.9553 532.201C34.1042 531.9 34.311 531.631 34.564 531.409C34.817 531.188 35.1111 531.018 35.4295 530.91C35.748 530.802 36.0846 530.758 36.4201 530.781L36.4201 530.8Z" fill="#F68915"/>
<path d="M36.1123 527.752C35.1111 526.847 34.0269 526.039 32.8741 525.337L31.4562 523.632L31.9288 524.795C30.5571 524.057 29.1204 523.448 27.6367 522.974L26.4871 521.882L26.9661 522.783C25.7897 522.441 24.593 522.175 23.383 521.984L21.3136 520.068L22.3291 521.812C20.3847 521.563 18.4199 521.516 16.4658 521.671C26.9661 512.666 37.8241 524.092 37.8241 524.092C37.2387 522.823 36.5509 521.603 35.7674 520.445L35.1287 518.229L35.0649 519.506C33.8162 517.839 32.3291 516.365 30.6514 515.131L29.8467 513.26L29.9744 514.665C27.7178 513.103 25.1247 512.097 22.4058 511.727C37.4728 507.645 40.6471 522.086 40.6471 522.086C45.5524 514.856 52.5015 514.486 52.5015 514.486C51.4245 514.964 50.4083 515.569 49.474 516.287L48.1455 516.485L49.0653 516.613C48.0416 517.472 47.1354 518.462 46.3699 519.557L45.3799 519.972L46.14 519.889C45.4436 520.905 44.8912 522.012 44.4985 523.179C54.7178 513.279 66.4955 519.519 66.4955 519.519C64.5263 519.269 62.5323 519.289 60.5683 519.576L59.1504 518.995L59.9743 519.634C58.6391 519.852 57.3203 520.162 56.0271 520.56L53.913 520.19L55.1904 520.828C54.0542 521.198 52.9372 521.624 51.8436 522.106L50.3235 521.844L51.3263 522.342C50.0839 522.903 48.8785 523.543 47.7176 524.258C63.8257 519.276 69.6124 529.725 69.6124 529.725C68.2051 528.838 66.6688 528.175 65.0584 527.758L63.2317 525.912L64.0556 527.515C61.353 526.987 58.5862 526.868 55.8483 527.164L54.2068 526.525L55.1265 527.273C53.3672 527.482 51.6282 527.836 49.9275 528.333C69.7273 529.125 68.3797 548.989 68.3797 548.989C66.817 545.351 64.7013 541.977 62.1076 538.987L61.2262 536.745L61.3092 538.131C59.7994 536.546 58.0385 535.221 56.0974 534.209L55.5162 532.734L55.5928 533.966C54.4719 533.402 53.2535 533.058 52.0033 532.951C62.9762 542.244 58.4861 555.446 58.4861 555.446C58.0438 551.604 57.0119 547.853 55.4267 544.326L55.4842 541.714L54.9286 543.298C53.9609 541.374 52.7758 539.567 51.3965 537.914L51.454 535.448L50.8153 537.256C49.5467 535.795 48.0471 534.552 46.3763 533.577C55.8738 545.674 49.6337 555.721 49.6337 555.721C49.6339 553.974 49.4887 552.231 49.1994 550.509L49.9339 548.331L49.0269 549.557C48.8003 548.438 48.5146 547.331 48.1711 546.242L48.8736 544.16L47.9156 545.437C47.6068 544.545 47.253 543.669 46.8553 542.812L47.8198 539.97L46.4082 541.886C45.9695 540.996 45.4612 540.142 44.8881 539.331L39.44 532.638C36.8011 532.121 34.1118 531.907 31.4243 531.999L29.9105 530.843L30.7536 532.031C28.8134 532.142 26.8884 532.439 25.0053 532.919L23.8556 532.472L24.571 533.04C22.3456 533.595 20.2266 534.512 18.2989 535.755C22.6165 525.778 36.1123 527.752 36.1123 527.752Z" fill="#F68915"/>
<path d="M14.8878 589.561C14.8878 589.561 19.1672 568.982 11.2217 549.961L12.9653 550.076C12.9653 550.076 19.4546 561.777 20.1635 589.937L14.8878 589.561Z" fill="#F68915"/>
<path d="M7.18609 551.047C6.5703 551.018 5.95463 551.107 5.37218 551.309L5.48714 550.708L5.10392 551.392C4.09156 551.758 3.14643 552.289 2.3064 552.963L2.44053 552.292L1.85931 553.327C0.402271 554.62 -0.849068 556.128 -1.85156 557.798C-1.85156 557.798 -1.21286 548.013 8.50182 548.92C7.70178 548.575 6.87516 548.295 6.03004 548.083L6.52823 547.777L5.67875 547.994C4.36344 547.671 3.00688 547.548 1.65492 547.63L2.1595 546.902L1.15034 547.687C0.33864 547.778 -0.454194 547.993 -1.20008 548.326C-1.20008 548.326 2.3064 543.606 9.83671 547.087C9.31817 546.657 8.77196 546.263 8.20163 545.905L8.72537 545.726L7.96531 545.758C7.46547 545.446 6.94953 545.16 6.41965 544.902L7.05835 544.672L6.00449 544.717C5.40009 544.438 4.7769 544.201 4.13948 544.008L4.58018 543.734L3.85206 543.925C2.91314 543.656 1.94185 543.516 0.965119 543.51C0.965119 543.51 7.12222 541.23 11.459 546.704C11.346 546.109 11.1504 545.532 10.8778 544.992L11.2419 545.081L10.7884 544.813C10.4844 544.229 10.1043 543.688 9.65788 543.203L10.1177 543.203L9.47904 543.025C9.07467 542.611 8.61972 542.251 8.12499 541.952C9.27978 542.265 10.3518 542.827 11.2656 543.6C12.1793 544.372 12.9125 545.336 13.4135 546.422C13.4135 546.422 15.9044 539.588 22.994 542.59C21.6401 542.607 20.3094 542.944 19.1107 543.574L19.2576 542.897L18.7466 543.759C17.8486 544.253 17.0268 544.875 16.3068 545.605L16.3643 544.966L15.9172 546.014C15.4593 546.523 15.0448 547.07 14.6781 547.649C14.6781 547.649 20.7202 542.782 25.2614 547.866C24.3166 547.662 23.3536 547.555 22.3872 547.547L23.0259 546.767L21.8763 547.553C21.2732 547.566 20.6716 547.617 20.0751 547.706L20.3689 547.304L19.7302 547.764C18.9749 547.906 18.2349 548.12 17.5203 548.402L17.8269 547.866L17.0221 548.607C16.4102 548.873 15.8243 549.196 15.2721 549.571C15.2721 549.571 21.9849 549.495 23.4539 554.636C22.5945 553.906 21.6215 553.321 20.5733 552.905L20.9565 552.675L20.3625 552.816C19.4751 552.46 18.5553 552.19 17.6161 552.011L18.1079 551.481L17.2904 551.947C15.9847 551.728 14.6581 551.659 13.3368 551.743L10.2455 554.655C9.90768 555.011 9.60204 555.396 9.33214 555.805L8.77008 554.783L9.05111 556.233C8.83395 556.584 8.59763 556.987 8.36769 557.446L7.98447 556.75L8.18886 557.817C7.94455 558.323 7.73125 558.843 7.55015 559.375L7.18609 558.737L7.40325 559.848C7.14953 560.668 6.96577 561.507 6.85397 562.358C6.85397 562.358 4.46522 557.05 9.88781 551.768C9.00714 552.134 8.19339 552.643 7.4799 553.276L7.28829 552.35L7.15416 553.557C6.36981 554.274 5.67111 555.08 5.07198 555.958L4.89953 555.147L4.76541 556.425C3.75664 558.04 3.00668 559.802 2.54272 561.649C2.54272 561.649 1.2206 554.866 7.18609 551.047Z" fill="#F68915"/>
<path d="M57.5994 566.944C58.1653 567.186 58.6793 567.536 59.1132 567.972L59.2728 567.391L59.3176 568.17C60.0666 568.944 60.6837 569.835 61.1442 570.808L61.3167 570.169L61.3806 571.357C62.124 573.158 62.5871 575.062 62.7538 577.004C62.7538 577.004 66.4583 567.934 57.3503 564.491C58.2098 564.53 59.0645 564.641 59.9052 564.824L59.5922 564.325L60.2309 564.894C61.5548 565.182 62.8275 565.668 64.0056 566.337L63.8715 565.456L64.4336 566.606C65.1233 567.048 65.7396 567.595 66.2603 568.228C66.2603 568.228 65.1809 562.479 56.8841 562.269C57.5381 562.112 58.2016 561.999 58.8705 561.93L58.4809 561.534L59.1196 561.898C59.6497 561.847 60.2501 561.809 60.8888 561.809L60.3906 561.311L61.3167 561.815C61.9843 561.829 62.6501 561.889 63.3095 561.994L63.0284 561.553L63.5969 562.045C64.5596 562.215 65.4944 562.516 66.3752 562.939C66.3752 562.939 61.8404 558.194 55.5173 561.228C55.8842 560.747 56.3138 560.317 56.7947 559.95L56.4242 559.874L56.948 559.835C57.4768 559.443 58.0544 559.121 58.6661 558.877L58.2573 558.673L58.896 558.788C59.4429 558.595 60.0113 558.471 60.5886 558.417C59.4116 558.193 58.1997 558.23 57.0387 558.526C55.8777 558.822 54.7957 559.369 53.8694 560.129C53.8694 560.129 54.6295 552.886 46.9586 552.465C48.1743 553.063 49.2329 553.938 50.05 555.019L50.216 554.381L50.2927 555.377C50.887 556.213 51.3541 557.132 51.6787 558.104L51.9086 557.517L51.8447 558.654C52.0336 559.314 52.1661 559.989 52.2407 560.672C52.2407 560.672 48.945 553.646 42.6602 556.201C43.5979 556.434 44.5096 556.761 45.381 557.178L45.1767 556.207L45.8473 557.415C46.3838 557.69 46.9022 557.999 47.3993 558.341L47.3099 557.849L47.6612 558.532C48.2841 558.982 48.8617 559.491 49.3857 560.052L49.3474 559.414L49.7434 560.429C50.1749 560.939 50.5597 561.486 50.8931 562.064C50.8931 562.064 44.8892 559.056 41.3125 563.029C42.4069 562.75 43.5394 562.651 44.6657 562.735L44.423 562.358L44.8892 562.748C45.8433 562.818 46.7886 562.978 47.7123 563.227L47.5079 562.537L48.0317 563.316C49.3026 563.692 50.5263 564.213 51.6787 564.868L53.1796 568.841C53.3229 569.309 53.4276 569.787 53.4926 570.272L54.4442 569.633L53.5564 570.808C53.6012 571.217 53.6331 571.683 53.6395 572.201L54.2782 571.741L53.6395 572.609C53.6333 573.171 53.5949 573.732 53.5245 574.289L54.1632 573.855L53.4798 574.755C53.3396 575.607 53.1259 576.445 52.8411 577.259C52.8411 577.259 57.312 573.535 54.7572 566.401C55.3876 567.115 55.8949 567.929 56.2582 568.809L56.8394 568.062L56.4306 569.205C56.819 570.192 57.0912 571.221 57.2418 572.271L57.7527 571.632L57.3184 572.846C57.5133 574.738 57.4142 576.649 57.0246 578.511C57.0246 578.511 61.2784 572.993 57.5994 566.944Z" fill="#F68915"/>
<path opacity="0.5" d="M11 45.6587C119.215 20.96 228.906 -0.655121 343.983 2.26544C360.653 2.6885 411.426 3.4322 420.826 20.1778C434.264 44.1193 382.083 82.5354 365.803 95.2749C288.493 155.772 198.412 208.405 126.975 272.716C112.116 286.093 97.642 300.266 89.1467 316.194C85.5609 322.917 84.3427 333.229 92.3485 337.638C109.962 347.337 187.874 328.589 192.196 327.546C299.351 301.686 401.584 264.917 505.613 233.612C569.226 214.469 626.692 196.935 692.976 183.911C725.14 177.592 766.444 169.24 800.887 177.436C844.023 187.701 847.976 226.796 839.189 253.206C821.665 305.878 764.399 343.225 705.901 374.135C650.362 403.482 587.573 424.085 530.871 452.008C485.543 474.33 448.29 502.976 422.012 537.449C407.475 556.517 383.006 598.394 435.293 597.997C479.699 597.66 525.824 582.415 564.312 568.732" stroke="black" stroke-opacity="0.3" stroke-linecap="round" stroke-dasharray="9 9"/>
</g>
<defs>
<linearGradient id="paint0_linear_730_327" x1="421" y1="-18.1357" x2="421" y2="148" gradientUnits="userSpaceOnUse">
<stop stop-color="#1887B4"/>
<stop offset="1" stop-color="#D9D9D9" stop-opacity="0"/>
</linearGradient>
<clipPath id="clip0_730_327">
<rect width="595" height="842" fill="white" transform="translate(843.398 1.98267) rotate(90.1349)"/>
</clipPath>
</defs>
</svg>
