<svg width="844" height="597" viewBox="0 0 844 597" fill="none" xmlns="http://www.w3.org/2000/svg">
<g clip-path="url(#clip0_730_327)">
<rect width="595" height="842" transform="translate(843.398 1.98267) rotate(90.1349)" fill="white"/>
<path d="M842 -7.78663e-08L0 0L1.36867e-08 148L842 148L842 -7.78663e-08Z" fill="url(#paint0_linear_730_327)" fill-opacity="0.17"/>
<path d="M101.494 60.9178C99.8147 59.8122 97.8216 59.2825 95.8152 59.4085C93.8088 59.5344 91.8976 60.3093 90.37 61.6162C90.1125 59.545 89.4271 57.5501 88.3573 55.758C87.2876 53.9659 85.8568 52.4158 84.1559 51.2063C81.5881 49.3369 78.4399 48.4074 75.5537 49.4088C78.481 48.5974 81.5059 49.7272 83.8991 51.6839C87.6738 54.981 89.7537 60.7688 88.6239 66.3718C88.7061 65.4782 90.4368 63.8451 90.9914 63.2904C91.8733 62.4359 92.8968 61.7408 94.0163 61.2362C95.1653 60.7117 96.4194 60.4579 97.682 60.4944C98.9445 60.5309 100.182 60.8567 101.299 61.4467C104.313 62.9874 106.706 66.0688 108.001 69.7716C106.855 66.0123 104.56 62.6741 101.494 60.9178Z" fill="black"/>
<path d="M72.0818 75.9292C69.3137 76.6687 66.6791 79.2109 65.6468 82.7031C62.4216 82.0355 59.2427 83.1293 56.5876 84.896C54.086 86.4106 52.1296 88.6798 51 91.3772C52.2283 88.8029 54.2619 86.6989 56.793 85.3839C59.4224 84.0794 64.4502 82.7031 66.7818 85.5482C66.4223 81.6246 69.3496 77.701 72.2256 76.4479C74.5252 75.4542 77.1153 75.3661 79.4771 76.2014C77.1345 75.1815 74.493 75.0843 72.0818 75.9292Z" fill="black"/>
<path d="M784.531 60.9178C782.852 59.8122 780.859 59.2825 778.852 59.4085C776.846 59.5344 774.935 60.3093 773.407 61.6162C773.15 59.545 772.464 57.5501 771.394 55.758C770.325 53.9659 768.894 52.4158 767.193 51.2063C764.625 49.3369 761.477 48.4074 758.591 49.4088C761.518 48.5974 764.543 49.7272 766.936 51.6839C770.711 54.981 772.791 60.7688 771.661 66.3718C771.743 65.4782 773.474 63.8451 774.029 63.2904C774.91 62.4359 775.934 61.7408 777.053 61.2362C778.202 60.7117 779.457 60.4579 780.719 60.4944C781.982 60.5309 783.219 60.8567 784.336 61.4467C787.35 62.9874 789.744 66.0688 791.038 69.7716C789.892 66.0123 787.597 62.6741 784.531 60.9178Z" fill="black"/>
<path d="M755.119 75.9292C752.351 76.6687 749.716 79.2109 748.684 82.7031C745.459 82.0355 742.28 83.1293 739.625 84.896C737.123 86.4106 735.167 88.6798 734.037 91.3772C735.265 88.8029 737.299 86.6989 739.83 85.3839C742.46 84.0794 747.487 82.7031 749.819 85.5482C749.459 81.6246 752.387 77.701 755.263 76.4479C757.562 75.4542 760.152 75.3661 762.514 76.2014C760.172 75.1815 757.53 75.0843 755.119 75.9292Z" fill="black"/>
<path opacity="0.5" d="M11 45.6587C119.215 20.96 228.906 -0.655121 343.983 2.26544C360.653 2.6885 411.426 3.4322 420.826 20.1778C434.264 44.1193 382.083 82.5354 365.803 95.2749C288.493 155.772 198.412 208.405 126.975 272.716C112.116 286.093 97.642 300.266 89.1467 316.194C85.5609 322.917 84.3427 333.229 92.3485 337.638C109.962 347.337 187.874 328.589 192.196 327.546C299.351 301.686 401.584 264.917 505.613 233.612C569.226 214.469 626.692 196.935 692.976 183.911C725.14 177.592 766.444 169.24 800.887 177.436C844.023 187.701 847.976 226.796 839.189 253.206C821.665 305.878 764.399 343.225 705.901 374.135C650.362 403.482 587.573 424.085 530.871 452.008C485.543 474.33 448.29 502.976 422.012 537.449C407.475 556.517 383.006 598.394 435.293 597.997C479.699 597.66 525.824 582.415 564.312 568.732" stroke="black" stroke-opacity="0.3" stroke-linecap="round" stroke-dasharray="9 9"/>
</g>
<defs>
<linearGradient id="paint0_linear_730_327" x1="421" y1="-18.1357" x2="421" y2="148" gradientUnits="userSpaceOnUse">
<stop stop-color="#1887B4"/>
<stop offset="1" stop-color="#D9D9D9" stop-opacity="0"/>
</linearGradient>
<clipPath id="clip0_730_327">
<rect width="595" height="842" fill="white" transform="translate(843.398 1.98267) rotate(90.1349)"/>
</clipPath>
</defs>
</svg>
