<svg width="269" height="197" viewBox="0 0 269 197" fill="none" xmlns="http://www.w3.org/2000/svg">
<path d="M262.22 428.034C276.122 366.98 267.548 302.402 238.34 248.184C208.931 193.677 161.388 153.695 105.641 136.589C49.8934 119.484 -9.74605 126.578 -60.82 156.39C-111.615 186.067 -149.736 236.326 -167 296.375L45.86 369.024L262.22 428.034Z" fill="#F68915"/>
<path d="M63.1002 136.752C63.1002 136.752 58.1602 79.1297 84.2202 30.2495L80.9102 30.009C80.9102 30.009 62.6302 59.5907 51.4902 135.954L63.1002 136.752Z" fill="#F68915"/>
<path d="M74.9906 34.3257C75.6444 34.3682 76.2807 34.5738 76.8506 34.9267C76.8406 34.7703 76.8406 34.6132 76.8506 34.4568C76.978 33.293 77.509 32.2269 78.3342 31.4781C79.1594 30.7293 80.216 30.3549 81.2863 30.4319C82.3566 30.5089 83.3591 31.0316 84.0873 31.8922C84.8155 32.7528 85.2139 33.8858 85.2006 35.0578C84.4712 35.3326 83.8322 35.8364 83.3637 36.5062C82.8951 37.176 82.6179 37.9819 82.5666 38.8231C82.5154 39.6643 82.6924 40.5034 83.0756 41.2351C83.4587 41.9669 84.031 42.5589 84.7206 42.9368C84.6092 44.0807 84.1079 45.137 83.3164 45.8953C82.5249 46.6537 81.5011 47.0587 80.4487 47.0298C79.3964 47.0009 78.3925 46.5401 77.6369 45.7392C76.8812 44.9383 76.4292 43.8559 76.3706 42.7073C75.7646 42.9721 75.1117 43.0842 74.4606 43.0351C73.9353 42.9971 73.422 42.8464 72.95 42.5916C72.478 42.3368 72.0566 41.9829 71.7098 41.5501C71.3629 41.1173 71.0975 40.6141 70.9286 40.0693C70.7598 39.5244 70.6908 38.9485 70.7256 38.3745C70.7604 37.8004 70.8983 37.2395 71.1315 36.7237C71.3646 36.208 71.6885 35.7474 72.0845 35.3684C72.4806 34.9894 72.941 34.6994 73.4397 34.5148C73.9383 34.3303 74.4653 34.2548 74.9906 34.2929V34.3257Z" fill="#F68915"/>
<path d="M74.2893 28.9603C72.7217 27.4125 71.0242 26.0294 69.2193 24.8295L66.9993 21.9118L67.7393 23.9007C65.5917 22.6389 63.3422 21.5963 61.0193 20.7862L59.2193 18.9176L59.9693 20.4584C58.1275 19.8744 56.2537 19.4182 54.3593 19.0924L51.1193 15.814L52.7093 18.7973C49.665 18.3724 46.5887 18.2919 43.5293 18.5569C59.9693 3.14869 76.9693 22.6986 76.9693 22.6986C76.0528 20.5266 74.9759 18.4398 73.7493 16.4588L72.7493 12.6668L72.6493 14.8524C70.6943 12.0004 68.3661 9.47826 65.7393 7.36684L64.4793 4.165L64.6793 6.56907C61.1463 3.89788 57.0862 2.17562 52.8293 1.54229C76.4193 -5.4406 81.3893 19.2672 81.3893 19.2672C89.0693 6.8969 99.9493 6.26312 99.9493 6.26312C98.2632 7.08155 96.672 8.11603 95.2093 9.34478L93.1293 9.68354L94.5693 9.90211C92.9667 11.372 91.5478 13.0657 90.3493 14.9398L88.7993 15.6501L89.9893 15.5081C88.899 17.2454 88.0341 19.1393 87.4193 21.1359C103.419 4.19774 121.859 14.8743 121.859 14.8743C118.776 14.4471 115.654 14.4801 112.579 14.9726L110.359 13.9782L111.649 15.071C109.559 15.445 107.494 15.9744 105.469 16.6555L102.159 16.0217L104.159 17.1145C102.38 17.7469 100.631 18.4763 98.9193 19.3L96.5393 18.852L98.1093 19.7043C96.1641 20.6648 94.277 21.7598 92.4593 22.9827C117.679 14.459 126.739 32.3369 126.739 32.3369C124.536 30.8194 122.131 29.684 119.609 28.9711L116.749 25.813L118.039 28.5559C113.808 27.6513 109.476 27.4487 105.189 27.9548L102.619 26.8621L104.059 28.1407C101.305 28.4979 98.582 29.1046 95.9193 29.9547C126.919 31.3097 124.809 65.2953 124.809 65.2953C122.363 59.072 119.05 53.2994 114.989 48.1823L113.609 44.3466L113.739 46.718C111.375 44.0063 108.618 41.7393 105.579 40.0083L104.669 37.484L104.789 39.593C103.034 38.6281 101.127 38.0384 99.1693 37.8555C116.349 53.7555 109.319 76.3433 109.319 76.3433C108.627 69.7702 107.011 63.353 104.529 57.3179L104.619 52.8485L103.749 55.5586C102.234 52.267 100.379 49.1761 98.2193 46.3464L98.3093 42.1283L97.3093 45.2208C95.323 42.7217 92.9752 40.5954 90.3593 38.9264C105.229 59.6238 95.4593 76.8132 95.4593 76.8132C95.4597 73.8254 95.2322 70.8426 94.7793 67.8961L95.9293 64.1697L94.5093 66.2678C94.1544 64.3528 93.7071 62.4597 93.1693 60.5963L94.2693 57.0339L92.7693 59.2194C92.2859 57.6926 91.7318 56.1935 91.1093 54.728L92.6193 49.8651L90.4093 53.1435C89.7223 51.6204 88.9265 50.1588 88.0293 48.7724L79.4993 37.32C75.3676 36.4354 71.157 36.0688 66.9493 36.2272L64.5793 34.2493L65.8993 36.2819C62.8616 36.4709 59.8477 36.9796 56.8993 37.8008L55.0993 37.0359L56.2193 38.0085C52.735 38.9576 49.4174 40.5267 46.3993 42.6528C53.1593 25.5835 74.2893 28.9603 74.2893 28.9603Z" fill="#F68915"/>
<path d="M41.2791 134.862C41.2791 134.862 47.9791 99.6523 35.5391 67.1093L38.2691 67.3059C38.2691 67.3059 48.4291 87.3257 49.5391 135.507L41.2791 134.862Z" fill="#F68915"/>
<path d="M37.4999 70.4425H37.4299H37.4899C37.4899 70.4425 37.4999 70.4753 37.4999 70.4425ZM43.2899 71.1966C43.2572 71.6052 43.151 72.0028 42.9774 72.3664C42.8037 72.73 42.5661 73.0526 42.278 73.3156C41.99 73.5786 41.6572 73.7768 41.2989 73.8988C40.9406 74.0209 40.5637 74.0644 40.1899 74.0269C39.7374 73.9926 39.2972 73.8509 38.8999 73.6116C38.7534 74.3925 38.3456 75.0856 37.7562 75.5554C37.1669 76.0251 36.4384 76.2378 35.7132 76.1517C34.988 76.0656 34.3183 75.687 33.835 75.0899C33.3517 74.4929 33.0896 73.7202 33.0999 72.9232C33.6021 72.7289 34.0414 72.3783 34.3635 71.9145C34.6856 71.4508 34.8764 70.8941 34.9126 70.3133C34.9487 69.7324 34.8286 69.1527 34.5669 68.6456C34.3052 68.1384 33.9134 67.7261 33.4399 67.4593C33.4916 66.6144 33.8483 65.8267 34.4316 65.2692C35.0148 64.7118 35.7768 64.4303 36.5499 64.4869C37.323 64.5434 38.0439 64.9332 38.554 65.5706C39.0641 66.2079 39.3216 67.0406 39.2699 67.8855C39.2699 67.9947 39.2699 68.104 39.2699 68.2133C39.6923 68.0305 40.1465 67.9521 40.5999 67.9838C41.3435 68.029 42.0414 68.3906 42.5441 68.9911C43.0469 69.5915 43.3146 70.3831 43.2899 71.1966Z" fill="#F68915"/>
<path d="M29.2203 68.9668C28.2562 68.9172 27.2922 69.0693 26.3803 69.4148L26.5603 68.3876L25.9603 69.5569C24.3753 70.1844 22.8955 71.0927 21.5803 72.2452L21.7903 71.0978L20.8803 72.8681C18.5991 75.0803 16.6399 77.6598 15.0703 80.5176C15.0703 80.5176 16.0703 63.7761 31.2803 65.3278C30.0277 64.7375 28.7335 64.2588 27.4103 63.8963L28.1903 63.3718L26.8603 63.7433C24.801 63.1904 22.677 62.9804 20.5603 63.1204L21.3503 61.8747L19.7703 63.2188C18.4995 63.3737 17.2581 63.7423 16.0903 64.3116C16.0903 64.3116 21.5803 56.2359 33.3703 62.1916C32.5584 61.4571 31.7033 60.7818 30.8103 60.1699L31.6303 59.8639L30.4403 59.9186C29.6577 59.3844 28.8499 58.8956 28.0203 58.4543L29.0203 58.0608L27.3703 58.1373C26.424 57.6592 25.4483 57.2539 24.4503 56.9243L25.1403 56.4545L24.0003 56.7823C22.5303 56.3217 21.0095 56.0827 19.4803 56.072C19.4803 56.072 29.1203 52.1708 35.9103 61.5359C35.7334 60.5181 35.4271 59.5323 35.0003 58.6072L35.5703 58.7602L34.8603 58.3013C34.3844 57.3018 33.7892 56.3757 33.0903 55.5474H33.8103L32.8103 55.2415C32.1772 54.5344 31.4649 53.9176 30.6903 53.4056C32.4983 53.9415 34.1768 54.9041 35.6074 56.2258C37.038 57.5475 38.186 59.196 38.9703 61.0551C38.9703 61.0551 42.8703 49.3623 53.9703 54.4984C51.8505 54.5271 49.767 55.1038 47.8903 56.1813L48.1203 55.0229L47.3203 56.4981C45.9143 57.344 44.6276 58.4078 43.5003 59.6563L43.5903 58.5635L42.8903 60.3557C42.1735 61.2275 41.5245 62.1633 40.9503 63.1532C40.9503 63.1532 50.4103 54.8262 57.5203 63.5247C56.0411 63.1765 54.5334 62.9935 53.0203 62.9783L54.0203 61.6452L52.2203 62.9893C51.2762 63.0111 50.3343 63.0987 49.4003 63.2515L49.8603 62.5631L48.8603 63.3499C47.6777 63.5928 46.5191 63.9587 45.4003 64.4427L45.8803 63.5247L44.6203 64.7924C43.6622 65.2486 42.7449 65.801 41.8803 66.4425C41.8803 66.4425 52.3903 66.3114 54.6903 75.1083C53.3448 73.859 51.8214 72.8586 50.1803 72.1468L50.7803 71.7534L49.8503 71.9938C48.4608 71.3849 47.0208 70.9238 45.5503 70.617L46.3203 69.7099L45.0403 70.5076C42.9961 70.1318 40.9191 70.0144 38.8503 70.1579L34.0103 75.141C33.4814 75.7493 33.0029 76.4076 32.5803 77.1081L31.7003 75.3596L32.1403 77.8402C31.8003 78.4413 31.4303 79.1297 31.0703 79.9165L30.4703 78.7254L30.7903 80.5503C30.4078 81.4161 30.0739 82.3066 29.7903 83.2167L29.2203 82.1239L29.5603 84.0254C29.1631 85.4278 28.8754 86.8645 28.7003 88.32C28.7003 88.32 24.9603 79.239 33.4503 70.2017C32.0715 70.8269 30.7974 71.6985 29.6803 72.7806L29.3803 71.1961L29.1703 73.2615C27.9423 74.4891 26.8483 75.8679 25.9103 77.3703L25.6403 75.9825L25.4303 78.1681C23.8509 80.9312 22.6767 83.9473 21.9503 87.107C21.9503 87.107 19.8803 75.5017 29.2203 68.9668Z" fill="#F68915"/>
<path d="M70.8692 149.57C70.8692 149.57 78.9892 114.711 103.249 91.3906L100.719 90.2979C100.719 90.2979 83.5492 103.411 63.1992 146.183L70.8692 149.57Z" fill="#F68915"/>
<path d="M108.15 96.1662C109.036 96.581 109.841 97.1783 110.52 97.9256L110.77 96.9312L110.84 98.2644C112.013 99.5877 112.979 101.112 113.7 102.778L113.97 101.685L114.07 103.717C115.234 106.799 115.959 110.056 116.22 113.378C116.22 113.378 122.02 97.8601 107.76 91.97C109.106 92.0355 110.444 92.2256 111.76 92.5382L111.27 91.6858L112.27 92.6584C114.343 93.1507 116.336 93.9834 118.18 95.1281L117.97 93.6201L118.85 95.5871C119.93 96.3439 120.895 97.2803 121.71 98.3627C121.71 98.3627 120.02 88.5277 107.03 88.1671C108.054 87.8995 109.093 87.706 110.14 87.5879L109.53 86.9104L110.53 87.5333C111.36 87.4458 112.3 87.3802 113.3 87.3802L112.52 86.5279L113.97 87.3912C115.016 87.4151 116.058 87.5174 117.09 87.6972L116.65 86.9432L117.54 87.7846C119.048 88.0746 120.511 88.5894 121.89 89.3145C121.89 89.3145 114.79 81.1951 104.89 86.3858C105.465 85.5631 106.138 84.8281 106.89 84.2003L106.31 84.0691L107.13 84.0036C107.958 83.3324 108.863 82.7814 109.82 82.3644L109.18 82.0147L110.18 82.2114C111.037 81.8823 111.927 81.6694 112.83 81.5776C110.988 81.1942 109.09 81.2579 107.272 81.7639C105.455 82.27 103.761 83.2061 102.31 84.5062C102.31 84.5062 103.5 72.1141 91.4904 71.3928C93.3936 72.4174 95.0512 73.9143 96.3304 75.764L96.5904 74.6712L96.7104 76.3759C97.6409 77.8055 98.3722 79.378 98.8804 81.0421L99.2404 80.0368L99.1404 81.9819C99.4361 83.1117 99.6435 84.267 99.7604 85.4351C99.7604 85.4351 94.6004 73.4145 84.7604 77.7856C86.2286 78.1835 87.656 78.7437 89.0204 79.4576L88.7004 77.7966L89.7504 79.8619C90.5904 80.333 91.4021 80.8623 92.1804 81.4464L92.0404 80.605L92.5904 81.7743C93.5656 82.5432 94.4699 83.4143 95.2904 84.3751L95.2304 83.2823L95.8504 85.0199C96.526 85.8915 97.1284 86.8278 97.6504 87.8174C97.6504 87.8174 88.2504 82.6704 82.6504 89.4675C84.3639 88.9902 86.137 88.8204 87.9004 88.9648L87.5204 88.32L88.2504 88.9867C89.7442 89.106 91.2242 89.3805 92.6704 89.8063L92.3504 88.626L93.1704 89.9592C95.1603 90.6031 97.0762 91.494 98.8804 92.6147L101.23 99.4119C101.455 100.212 101.619 101.03 101.72 101.86L103.21 100.767L101.82 102.778C101.89 103.477 101.94 104.275 101.95 105.16L102.95 104.373L101.95 105.859C101.941 106.82 101.881 107.78 101.77 108.733L102.77 107.99L101.7 109.531C101.481 110.988 101.146 112.421 100.7 113.815C100.7 113.815 107.7 107.444 103.7 95.2374C104.687 96.4587 105.482 97.851 106.05 99.3572L106.96 98.0786L106.32 100.035C106.928 101.723 107.355 103.484 107.59 105.28L108.39 104.187L107.71 106.264C108.016 109.501 107.86 112.771 107.25 115.956C107.25 115.956 113.91 106.515 108.15 96.1662Z" fill="#F68915"/>
</svg>
