<svg width="268" height="77" viewBox="0 0 268 77" fill="none" xmlns="http://www.w3.org/2000/svg">
<path d="M41.8283 55.7587C41.6168 56.0892 41.344 56.3583 41.0307 56.5451C40.7045 56.7353 40.3452 56.8328 39.9813 56.83C39.726 56.8449 39.4708 56.7976 39.2315 56.6911C38.9923 56.5846 38.7743 56.421 38.5909 56.2107C38.4119 55.9899 38.273 55.7283 38.1827 55.4418C38.0925 55.1553 38.0528 54.8501 38.0662 54.5449V48.2904H35.6841V54.9722C35.6736 55.747 35.8308 56.5121 36.1406 57.1953C36.4321 57.8372 36.8726 58.3677 37.4104 58.7249C37.9809 59.0992 38.6257 59.2873 39.2783 59.2698C40.218 59.2999 41.1339 58.9183 41.8493 58.1985V59.0655H44.2261V48.2904H41.823L41.8283 55.7587Z" fill="#F68915"/>
<path d="M58.4673 48.631C57.9211 48.2581 57.2985 48.0696 56.6676 48.086C56.0838 48.0766 55.5053 48.2183 54.9728 48.5009C54.4578 48.7754 54.0021 49.184 53.6401 49.6961C53.3411 49.1946 52.9431 48.7865 52.4805 48.5071C51.8372 48.1487 51.12 48.0165 50.4147 48.1264C49.7095 48.2362 49.0459 48.5834 48.5033 49.1264V48.2966H46.1055V59.0716H48.5033V51.5167C48.6898 51.2008 48.9406 50.9453 49.2326 50.7736C49.5355 50.6033 49.8679 50.5185 50.2033 50.5259C50.438 50.5146 50.6719 50.5642 50.8886 50.6712C51.1053 50.7782 51.2994 50.94 51.4574 51.1452C51.7845 51.6117 51.9511 52.2062 51.9243 52.811V59.0778H54.3222V52.3651C54.3222 52.2289 54.3222 52.0988 54.3222 51.975C54.3222 51.8511 54.2959 51.7273 54.2855 51.6034C54.4722 51.2552 54.735 50.9728 55.0463 50.786C55.3553 50.61 55.6948 50.521 56.038 50.5259C56.2725 50.5154 56.5062 50.5654 56.7228 50.6724C56.9394 50.7793 57.1336 50.9406 57.292 51.1452C57.6177 51.6123 57.7825 52.207 57.7537 52.811V59.0778H60.1568V52.3651C60.1695 51.5908 60.0142 50.8254 59.7056 50.142C59.4179 49.5139 58.9896 48.9912 58.4673 48.631Z" fill="#F68915"/>
<path d="M74.3228 48.631C73.7762 48.259 73.1539 48.0705 72.5231 48.086C71.9376 48.0767 71.3574 48.2183 70.8231 48.5009C70.3096 48.7757 69.8557 49.1843 69.4956 49.6961C69.2065 49.1893 68.8176 48.7728 68.3622 48.4824C67.7189 48.124 67.0017 47.9918 66.2965 48.1016C65.5912 48.2114 64.9276 48.5586 64.385 49.1016V48.2718H61.9609V59.0469H64.3588V51.5167C64.5453 51.2008 64.7961 50.9453 65.0881 50.7736C65.3908 50.6026 65.7233 50.5178 66.0588 50.5259C66.2934 50.5154 66.5271 50.5654 66.7437 50.6724C66.9603 50.7793 67.1545 50.9406 67.3128 51.1452C67.6385 51.6123 67.8033 52.207 67.7746 52.811V59.0778H70.1777V52.3651C70.1777 52.2289 70.1777 52.0988 70.1777 51.975L70.141 51.6034C70.3264 51.2539 70.5896 50.9712 70.9018 50.786C71.2108 50.61 71.5503 50.521 71.8934 50.5259C72.128 50.5154 72.3617 50.5654 72.5783 50.6724C72.7949 50.7793 72.9891 50.9406 73.1475 51.1452C73.4744 51.6139 73.6393 52.2111 73.6092 52.8172V59.084H76.007V52.3651C76.0214 51.5913 75.8679 50.826 75.561 50.142C75.2734 49.5139 74.8451 48.9912 74.3228 48.631Z" fill="#F68915"/>
<path d="M82.2819 59.2698C82.9579 59.2813 83.6305 59.1556 84.2705 58.8983C84.899 58.6263 85.483 58.2283 85.9967 57.7217L84.4226 56.0249C84.1653 56.306 83.8591 56.5173 83.5254 56.6442C83.1657 56.7892 82.788 56.8625 82.4078 56.8609C82.0157 56.8657 81.6274 56.7706 81.2692 56.5823C80.9222 56.4006 80.6153 56.1273 80.372 55.7834C80.129 55.4461 79.95 55.0512 79.8473 54.6254H86.6106V53.8823C86.6273 52.8473 86.4253 51.8236 86.0229 50.9037C85.6506 50.0614 85.0945 49.3517 84.4122 48.8478C83.7088 48.3384 82.8971 48.0764 82.072 48.0923C81.2407 48.0816 80.4226 48.3385 79.7056 48.8354C78.9933 49.3308 78.4047 50.0397 77.9992 50.8901C77.5938 51.7405 77.386 52.7022 77.397 53.6779C77.3849 54.6718 77.6084 55.6499 78.0423 56.5017C78.4888 57.3524 79.1134 58.0529 79.856 58.5356C80.5986 59.0182 81.4341 59.2669 82.2819 59.2574V59.2698ZM80.2618 51.4672C80.4592 51.1489 80.7207 50.8935 81.0226 50.7241C81.3389 50.5473 81.6853 50.4584 82.0353 50.464C82.3756 50.4602 82.7118 50.5514 83.0165 50.7303C83.3213 50.9106 83.5884 51.1686 83.7982 51.4858C84.0174 51.8199 84.1764 52.2035 84.2652 52.6128H79.8106C79.895 52.1994 80.0484 51.8099 80.2618 51.4672Z" fill="#F68915"/>
<path d="M88.0664 48.2904V59.0654H90.4852V52.074C90.7001 51.5876 91.0206 51.1773 91.414 50.8851C91.7987 50.6055 92.2424 50.4595 92.6942 50.464C92.9078 50.4618 93.1208 50.4889 93.3291 50.5445C93.531 50.5974 93.7279 50.6742 93.9168 50.7736V48.2966C93.6035 48.1318 93.2626 48.0534 92.9198 48.0675C92.4379 48.0589 91.9612 48.1863 91.5294 48.439C91.1086 48.6886 90.7477 49.0591 90.48 49.5165V48.3152L88.0664 48.2904Z" fill="#F68915"/>
<path d="M64.3858 38.3142L62.9481 36.537C62.65 36.9205 62.2942 37.2354 61.8987 37.4659C61.5439 37.6763 61.152 37.7845 60.7549 37.7817C60.3034 37.7897 59.8593 37.6458 59.4746 37.3668C59.0997 37.0885 58.7924 36.7001 58.5826 36.2397C58.356 35.7547 58.2402 35.2083 58.2468 34.6544C58.2378 34.0953 58.3459 33.5422 58.5617 33.0444C58.7634 32.5818 59.0708 32.1951 59.4492 31.928C59.8275 31.661 60.2617 31.5243 60.7024 31.5334C61.1158 31.53 61.5245 31.6358 61.8987 31.843C62.2989 32.0832 62.6554 32.4135 62.9481 32.8152L64.4068 30.9575C63.94 30.338 63.3607 29.8511 62.712 29.5332C62.0491 29.1975 61.3346 29.0267 60.6132 29.0316C59.78 29.0235 58.9595 29.2738 58.2339 29.7574C57.5083 30.241 56.903 30.9409 56.4786 31.7873C56.0625 32.6552 55.8438 33.6355 55.8438 34.6328C55.8438 35.63 56.0625 36.6103 56.4786 37.4782C56.8917 38.3129 57.4834 39.0048 58.1944 39.4846C58.9269 39.9799 59.7586 40.2344 60.6027 40.2215C61.3095 40.2273 62.0091 40.0542 62.6543 39.7137C63.3066 39.3922 63.896 38.9159 64.3858 38.3142Z" fill="#F68915"/>
<path d="M68.028 32.5675C68.2302 32.2299 68.5007 31.9574 68.815 31.7749C69.1531 31.5807 69.5252 31.4832 69.9012 31.49C70.1573 31.4753 70.4133 31.5227 70.6533 31.6292C70.8933 31.7357 71.1124 31.8991 71.2969 32.1093C71.4749 32.3309 71.6131 32.5927 71.7033 32.879C71.7935 33.1652 71.8337 33.47 71.8216 33.7751V40.0357H74.2037V33.3354C74.2171 32.561 74.0617 31.7955 73.7524 31.1123C73.4558 30.4797 73.0162 29.9566 72.4826 29.6013C71.7797 29.1613 70.9817 28.9782 70.1903 29.0752C69.3988 29.1723 68.6498 29.5451 68.0385 30.1462V24.9507L65.6406 25.5699V40.0357H68.0385L68.028 32.5675Z" fill="#F68915"/>
<path d="M80.4659 40.2401C81.336 40.2562 82.1942 39.9998 82.9529 39.497C83.6735 39.0159 84.2742 38.3197 84.6949 37.4782C85.1222 36.6233 85.3435 35.6469 85.335 34.6544C85.3466 33.6539 85.1212 32.6696 84.6844 31.812C84.2622 30.973 83.6594 30.2808 82.9372 29.8056C82.1768 29.3264 81.328 29.0757 80.4659 29.0757C79.6038 29.0757 78.755 29.3264 77.9946 29.8056C77.2676 30.2798 76.6595 30.9719 76.2316 31.812C75.8087 32.6728 75.5859 33.6501 75.5859 34.6451C75.5859 35.6401 75.8087 36.6175 76.2316 37.4782C76.6567 38.3199 77.2609 39.0158 77.9841 39.497C78.7408 40.0004 79.5974 40.2569 80.4659 40.2401ZM78.2727 33.0629C78.4907 32.6048 78.8051 32.2209 79.1856 31.9483C79.5759 31.6687 80.0251 31.5249 80.4816 31.5334C80.9297 31.526 81.3703 31.6699 81.7514 31.9483C82.3336 32.3933 82.7517 33.0816 82.922 33.8751C83.0923 34.6687 83.0021 35.5089 82.6696 36.2273C82.4533 36.6832 82.1406 37.0651 81.7619 37.3358C81.3732 37.621 80.9235 37.7692 80.4659 37.7631C80.0097 37.7712 79.5612 37.6227 79.1751 37.3358C78.7982 37.0565 78.4876 36.6687 78.2727 36.2087C78.0557 35.7207 77.9424 35.1777 77.9424 34.6265C77.9424 34.0754 78.0557 33.5324 78.2727 33.0443V33.0629Z" fill="#F68915"/>
<path d="M88.7878 39.497C89.5414 39.9983 90.3942 40.2547 91.2592 40.2401C92.1291 40.2548 92.987 39.9984 93.7462 39.497C94.4668 39.0159 95.0675 38.3197 95.4882 37.4782C95.9155 36.6233 96.1368 35.6469 96.1283 34.6544C96.1398 33.6539 95.9145 32.6696 95.4777 31.812C95.0551 30.9713 94.4501 30.2787 93.7253 29.8056C92.9655 29.3275 92.1176 29.0774 91.2565 29.0774C90.3955 29.0774 89.5476 29.3275 88.7878 29.8056C88.0648 30.2816 87.4604 30.9735 87.0354 31.812C86.6093 32.6715 86.3848 33.6493 86.3848 34.6451C86.3848 35.6409 86.6093 36.6187 87.0354 37.4782C87.4605 38.3199 88.0646 39.0158 88.7878 39.497ZM89.066 33.0629C89.2824 32.6035 89.5972 32.2191 89.9789 31.9483C90.3692 31.6687 90.8184 31.5249 91.2749 31.5334C91.723 31.526 92.1636 31.6699 92.5447 31.9483C93.1269 32.3933 93.545 33.0816 93.7153 33.8751C93.8855 34.6687 93.7954 35.5089 93.4629 36.2273C93.2466 36.6832 92.9338 37.0651 92.5552 37.3358C92.1665 37.621 91.7168 37.7692 91.2592 37.7631C90.8029 37.7712 90.3545 37.6227 89.9684 37.3358C89.5915 37.0565 89.2809 36.6687 89.066 36.2087C88.849 35.7206 88.7356 35.1777 88.7356 34.6265C88.7356 34.0754 88.849 33.5324 89.066 33.0443V33.0629Z" fill="#F68915"/>
<path d="M97.5977 25.5576V40.0358H100.001V25.0807L97.5977 25.5576Z" fill="#F68915"/>
<path d="M38.5865 3.35725C36.4778 3.40245 34.3972 3.9369 32.4633 4.93016C30.8867 5.74314 29.5383 7.06822 28.5753 8.75097C27.6568 10.4354 27.2243 12.4251 27.3423 14.4233C27.344 15.5505 27.5392 16.6655 27.9161 17.7011C28.2931 18.7367 28.844 19.6714 29.5355 20.4487C30.9102 21.9597 32.8551 22.9175 35.3701 23.322L41.2677 24.22C43.0447 24.4677 44.3092 24.9032 45.0613 25.5266C45.4331 25.8335 45.7362 26.2423 45.9446 26.718C46.153 27.1937 46.2604 27.722 46.2575 28.2575C46.2981 29.1152 46.064 29.9595 45.6017 30.6231C45.0609 31.3698 44.3594 31.9303 43.5711 32.2455C42.5481 32.668 41.4751 32.8979 40.3915 32.9267C38.6578 33.0242 36.926 32.6931 35.3072 31.9545C33.4512 31.0386 31.7285 29.7849 30.2019 28.2389C28.5125 26.658 26.5944 25.4516 24.5404 24.6782C22.4553 23.8617 20.273 23.4436 18.0762 23.4397C15.9705 23.3724 13.8741 23.7932 11.9057 24.6782C10.3006 25.4145 8.90516 26.6728 7.88132 28.3071C6.91498 29.9384 6.41332 31.8903 6.4489 33.8803C6.41039 35.0084 6.56632 36.134 6.90724 37.1889C7.24816 38.2437 7.76697 39.2059 8.43225 40.0172C9.74748 41.5901 11.6574 42.6428 14.1619 43.1754L20.0123 44.3705C21.7858 44.6967 23.0363 45.1921 23.7639 45.8568C24.1231 46.1829 24.4103 46.6065 24.6012 47.0916C24.7921 47.5768 24.881 48.1091 24.8605 48.6434C24.8716 49.5038 24.6074 50.3374 24.1206 50.978C23.553 51.7025 22.8266 52.2275 22.0219 52.4952C20.9849 52.8672 19.9049 53.0448 18.8212 53.0215C17.0877 53.024 15.3726 52.6023 13.7841 51.783C11.9721 50.796 10.3025 49.4796 8.83626 47.8817L5.3418 53.102C7.11942 54.9982 9.17478 56.4965 11.4073 57.5235C13.6165 58.5688 15.9741 59.1089 18.3542 59.115C20.6292 59.1971 22.8951 58.7401 25.0179 57.7712C26.739 56.975 28.2406 55.6336 29.3571 53.8947C30.3944 52.1882 30.934 50.1301 30.8945 48.0303C30.9366 46.8251 30.7609 45.6231 30.3792 44.5042C29.9974 43.3853 29.4183 42.375 28.6802 41.5405C27.2041 39.8892 24.9934 38.7869 22.0481 38.2337L16.4863 37.1934C15.3481 37.0152 14.2531 36.562 13.2699 35.862C12.9906 35.5924 12.7599 35.2596 12.5913 34.8831C12.4228 34.5066 12.3198 34.094 12.2885 33.6698C12.2572 33.2456 12.2982 32.8183 12.4091 32.413C12.52 32.0078 12.6985 31.6329 12.9341 31.3104C13.4497 30.6736 14.0944 30.2026 14.8073 29.9419C15.7328 29.5925 16.7006 29.4251 17.6721 29.4465C20.7469 29.4465 23.8111 30.8047 26.8648 33.5212C28.7551 35.3408 30.881 36.7898 33.1611 37.8126C35.4083 38.7465 37.7855 39.1669 40.1658 39.0511C42.4272 39.0019 44.6573 38.4187 46.7245 37.3358C48.4178 36.4592 49.8711 35.0441 50.9221 33.2487C51.9006 31.4923 52.3684 29.4078 52.2548 27.31C52.2522 26.1049 52.0334 24.914 51.6129 23.8157C51.1924 22.7175 50.5796 21.7367 49.815 20.9379C48.2829 19.3691 46.0337 18.3783 43.0674 17.9655L37.4741 17.1976C36.3275 17.071 35.215 16.6684 34.2053 16.0148C33.9183 15.7584 33.6773 15.4371 33.4966 15.0697C33.3158 14.7023 33.1988 14.296 33.1524 13.8747C33.106 13.4534 33.1312 13.0254 33.2263 12.6156C33.3215 12.2059 33.4849 11.8226 33.7068 11.4881C34.1985 10.8232 34.8275 10.3197 35.5328 10.0266C36.4455 9.63751 37.4063 9.4283 38.3766 9.40738C41.4933 9.25463 44.6415 10.4931 47.8211 13.1229L50.9168 7.64869C49.1599 6.13138 47.1824 5.00643 45.0822 4.32948C42.9748 3.59832 40.7818 3.27009 38.5865 3.35725Z" fill="#F68915"/>
<path d="M53.6202 16.3678C55.1677 16.3678 56.4221 14.8873 56.4221 13.061C56.4221 11.2347 55.1677 9.75417 53.6202 9.75417C52.0728 9.75417 50.8184 11.2347 50.8184 13.061C50.8184 14.8873 52.0728 16.3678 53.6202 16.3678Z" fill="#1887B4"/>
<path d="M2.80187 50.4888C4.34931 50.4888 5.60376 49.0083 5.60376 47.1819C5.60376 45.3556 4.34931 43.8751 2.80187 43.8751C1.25444 43.8751 0 45.3556 0 47.1819C0 49.0083 1.25444 50.4888 2.80187 50.4888Z" fill="#1887B4"/>
<path d="M191.898 33.1593C190.815 33.0522 189.787 32.6719 188.93 32.0614C188.073 31.4508 187.421 30.6344 187.047 29.7044C186.786 28.9981 186.697 28.2487 186.785 27.5079C186.873 26.7671 187.136 26.0524 187.557 25.4131C187.978 24.7737 188.546 24.225 189.223 23.8044C189.899 23.3839 190.668 23.1017 191.476 22.9772C192.284 22.8527 193.112 22.8889 193.903 23.0832C194.694 23.2776 195.429 23.6255 196.059 24.103C196.688 24.5805 197.195 25.1763 197.547 25.8494C197.898 26.5225 198.086 27.2568 198.095 28.0019C198.102 29.0903 197.729 30.1527 197.028 31.0351C196.327 31.9176 195.336 32.5743 194.197 32.9104C193.455 33.1251 192.675 33.2096 191.898 33.1593Z" fill="#F68915"/>
<path d="M187.506 61.6642C187.237 61.5255 187.029 61.3078 186.915 61.0469C186.707 60.6187 186.696 60.3002 186.74 53.4004C186.783 46.5007 186.74 46.1721 187.024 45.1565C187.842 41.5075 189.983 38.2136 193.103 35.8019C196.224 33.3903 200.144 32.0004 204.237 31.8548H205.123V41.8112L204.193 41.9406C202.943 42.0946 201.763 42.5563 200.781 43.2757C199.799 43.9952 199.051 44.9451 198.62 46.0227C198.346 46.6699 198.324 46.8491 198.247 49.4179C198.149 52.4048 197.995 53.2212 197.24 54.8839C195.652 58.3388 191.59 61.6343 188.721 61.7936C188.311 61.8564 187.889 61.8115 187.506 61.6642Z" fill="#F68915"/>
<path d="M257.056 69.9281C256.084 69.7425 255.227 69.2275 254.657 68.4879C254.088 67.7482 253.849 66.8393 253.99 65.9455C254.189 65.2397 254.51 64.5674 254.943 63.9543C257.714 59.3581 259.428 54.2971 259.98 49.0795C260.18 46.5731 260.162 44.0562 259.925 41.5524C258.975 33.2947 255.086 25.5448 248.848 19.4812C242.611 13.4177 234.366 9.37205 225.369 7.95955C223.008 7.56438 220.607 7.40415 218.208 7.48167C215.619 7.40234 213.029 7.59608 210.489 8.05909C201.676 9.5843 193.634 13.6395 187.545 19.6287C181.455 25.618 177.638 33.2255 176.655 41.3334C176.381 44.0425 176.381 46.7686 176.655 49.4776C177.254 54.5247 178.936 59.416 181.604 63.8747C182.59 65.4776 182.699 66.4832 182.009 67.7477C181.743 68.2405 181.352 68.6694 180.87 68.9998C180.387 69.3302 179.826 69.5528 179.231 69.6497C178.637 69.7465 178.025 69.715 177.447 69.5575C176.868 69.4001 176.338 69.1213 175.9 68.7433C174.981 67.7358 174.243 66.6036 173.71 65.388C169.585 57.6714 167.941 49.0519 168.967 40.5227C169.994 31.9936 173.65 23.9017 179.513 17.1792C180.883 15.6405 182.345 14.1714 183.893 12.7785C184.068 12.6391 184.55 12.2507 184.988 11.9122C188.219 9.28785 191.829 7.07704 195.718 5.34102C200.963 2.97761 206.621 1.46157 212.438 0.860645C216.225 0.555436 220.034 0.538796 223.825 0.810875C229.743 1.37854 235.504 2.89545 240.84 5.29125C245.427 7.31052 249.618 10.0014 253.246 13.2564C262.191 21.3082 267.443 32.147 267.94 43.5835C268.345 51.0908 266.65 58.5689 263.013 65.3183C260.976 69.0718 260.188 69.8484 258.195 70.0177C257.812 70.0356 257.429 70.0055 257.056 69.9281Z" fill="#F68915"/>
<path d="M240.336 68.9923C239.867 68.9386 239.39 69.0004 238.956 69.1715C238.803 69.3108 238.781 69.749 238.781 72.487C238.781 75.225 238.781 75.673 238.956 75.8124C239.988 76.0648 241.077 76.0475 242.099 75.7626C242.978 75.4283 243.702 74.8264 244.146 74.0601C244.595 73.1634 244.65 72.1448 244.3 71.2126C243.888 70.3119 243.1 69.5961 242.11 69.2213C241.535 69.0629 240.937 68.9856 240.336 68.9923ZM240.139 70.2369H240.643C241.133 70.2487 241.61 70.3844 242.02 70.6288C242.43 70.8733 242.757 71.2167 242.964 71.6207C243.206 72.1682 243.205 72.78 242.959 73.3265C242.714 73.8729 242.244 74.3111 241.65 74.5479C241.342 74.6701 241.011 74.7377 240.675 74.747H240.161V70.2369H240.139Z" fill="#F68915"/>
<path d="M195.807 68.9927C195.266 68.942 194.72 69.0032 194.208 69.1719C194.066 69.3112 194.033 69.7494 194.033 72.4874C194.033 75.2254 194.033 75.6734 194.208 75.8128C194.345 75.9174 194.517 75.9747 194.696 75.9747C194.874 75.9747 195.047 75.9174 195.183 75.8128C195.358 75.6734 195.391 75.4842 195.391 74.5483V73.4531H196.322C196.714 73.4726 197.106 73.4141 197.471 73.2817C197.836 73.1493 198.165 72.9462 198.435 72.6865C198.671 72.4267 198.84 72.1216 198.928 71.794C199.016 71.4665 199.021 71.1249 198.943 70.7952C198.865 70.4656 198.706 70.1563 198.478 69.8906C198.249 69.625 197.958 69.4098 197.625 69.2614C197.04 69.0791 196.425 68.9884 195.807 68.9927ZM195.391 70.2373H196.125C196.957 70.2373 197.34 70.4065 197.504 70.8446C197.573 71.0172 197.583 71.2048 197.532 71.3826C197.481 71.5604 197.372 71.7201 197.219 71.8402C197.001 71.9995 196.76 72.0393 196.125 72.0393H195.347V70.1974L195.391 70.2373Z" fill="#F68915"/>
<path d="M188.229 68.8623C187.735 68.8477 187.243 68.9288 186.786 69.1005C186.329 69.2722 185.918 69.5304 185.579 69.8579C185.121 70.288 184.784 70.8126 184.598 71.3869C184.412 71.9611 184.381 72.5678 184.509 73.1551C184.638 73.7424 184.92 74.2928 185.334 74.7589C185.747 75.2251 186.278 75.5932 186.882 75.8317C187.344 75.997 187.845 76.055 188.338 76.0009C188.811 76.0126 189.281 75.9296 189.714 75.7575C190.147 75.5854 190.534 75.3285 190.846 75.0053C191.471 74.4154 191.857 73.6503 191.943 72.8349C192.028 72.0194 191.808 71.2016 191.316 70.5149C191.027 70.0019 190.582 69.5744 190.036 69.2818C189.489 68.9892 188.863 68.8438 188.229 68.8623ZM188.229 70.1366C188.672 70.1358 189.105 70.2571 189.47 70.4847C189.836 70.7122 190.117 71.0352 190.276 71.411C190.516 71.8413 190.594 72.3311 190.5 72.8057C190.405 73.2803 190.142 73.7136 189.751 74.0395C189.492 74.307 189.165 74.5122 188.798 74.6369C188.39 74.7823 187.936 74.7823 187.528 74.6369C187.035 74.4735 186.612 74.1707 186.323 73.7729C186.033 73.375 185.891 72.9031 185.918 72.4266C185.894 72.1362 185.936 71.8444 186.041 71.5693C186.146 71.2941 186.312 71.0414 186.528 70.8268C186.745 70.6122 187.007 70.4403 187.3 70.3216C187.592 70.2029 187.908 70.1399 188.229 70.1366Z" fill="#F68915"/>
<path d="M247.944 75.832C247.365 75.6502 246.827 75.3735 246.357 75.0155C246.273 74.9623 246.205 74.8915 246.158 74.8092C246.111 74.7268 246.086 74.6354 246.086 74.5426C246.086 74.4498 246.111 74.3584 246.158 74.2761C246.205 74.1938 246.273 74.123 246.357 74.0697C246.674 73.8806 246.576 73.8506 247.879 74.4878C248.142 74.6368 248.436 74.7364 248.742 74.7808C249.049 74.8253 249.362 74.8137 249.663 74.7467C250.255 74.6073 250.758 74.1792 250.758 73.8705C250.758 73.5619 250.233 73.1636 249.565 73.0143C248.725 72.872 247.913 72.617 247.156 72.2576C245.787 71.4213 245.984 69.8382 247.55 69.0716C248.006 68.8738 248.515 68.7979 249.017 68.8526C249.616 68.7881 250.221 68.9072 250.736 69.1911C251.073 69.3343 251.374 69.5374 251.623 69.7884C251.798 70.0274 251.798 70.0872 251.623 70.3261C251.448 70.5651 251.01 70.7045 250.101 70.3261C249.433 70.0075 249.247 69.9577 248.831 70.0074C248.218 70.0871 247.736 70.3659 247.616 70.6546C247.462 71.1923 247.791 71.4013 249.313 71.7598C251.021 72.158 251.722 72.6062 251.974 73.4724C252.071 73.9211 251.996 74.3867 251.761 74.7911C251.526 75.1954 251.145 75.5138 250.682 75.6926C249.806 75.9917 248.851 76.0404 247.944 75.832Z" fill="#F68915"/>
<path d="M231.183 75.8128C231.019 75.6734 231.008 75.2553 231.03 72.4575V69.2614L231.347 69.132C231.61 69.0125 231.698 69.0125 231.917 69.132C232.587 69.825 233.212 70.5531 233.789 71.3125L235.421 73.3038V71.3125C235.421 69.1818 235.508 69.0027 236.121 69.0027C236.735 69.0027 236.8 69.0723 236.8 72.4476C236.8 75.305 236.8 75.544 236.592 75.6933C236.45 75.8002 236.273 75.8598 236.089 75.8625C235.749 75.8625 235.607 75.7132 233.691 73.3038L232.344 71.6113V73.6025C232.398 74.315 232.328 75.0308 232.136 75.7232C232.014 75.8377 231.852 75.9093 231.677 75.9257C231.503 75.9421 231.328 75.9022 231.183 75.8128Z" fill="#F68915"/>
<path d="M227.83 75.8022C227.589 73.6448 227.567 71.4717 227.764 69.3106C227.825 69.2345 227.902 69.1703 227.99 69.1219C228.079 69.0734 228.177 69.0418 228.279 69.0288C228.382 69.0157 228.486 69.0217 228.585 69.0461C228.685 69.0706 228.778 69.1132 228.859 69.1712C229.067 69.3405 229.078 69.5297 229.078 72.4868C229.078 75.4438 229.078 75.6528 228.87 75.8022C228.721 75.9063 228.538 75.9627 228.35 75.9627C228.162 75.9627 227.979 75.9063 227.83 75.8022Z" fill="#F68915"/>
<path d="M218.665 75.8128C218.512 75.6734 218.49 75.2354 218.49 72.4874C218.49 69.7395 218.49 69.3113 218.665 69.1719C218.795 69.0853 218.947 69.0313 219.107 69.0156C219.266 68.9998 219.428 69.0229 219.574 69.0823C219.64 69.0823 220.165 69.7494 220.735 70.4662C221.304 71.1831 221.83 71.7705 221.83 71.7705C221.83 71.7705 222.312 71.2129 222.859 70.516C223.954 69.1021 224.074 69.0027 224.49 69.0027C225.147 69.0027 225.158 69.0822 225.158 72.5072C225.158 75.4145 225.158 75.6535 224.961 75.8029C224.825 75.9074 224.652 75.9647 224.474 75.9647C224.296 75.9647 224.123 75.9074 223.987 75.8029C223.844 75.6734 223.812 75.3349 223.812 73.722C223.834 73.0574 223.809 72.3922 223.735 71.7307C223.464 71.9356 223.235 72.1815 223.056 72.4575C222.322 73.3934 222.18 73.4532 221.753 73.4532C221.326 73.4532 221.326 73.3137 220.658 72.5172L219.903 71.5216V73.5128C219.903 75.1756 219.837 75.5042 219.684 75.6834C219.565 75.8199 219.393 75.9095 219.203 75.9336C219.013 75.9577 218.821 75.9144 218.665 75.8128Z" fill="#F68915"/>
<path d="M206.953 75.8128C206.788 75.6734 206.778 75.2652 206.799 72.4575V69.2614L207.106 69.132C207.38 69.0125 207.467 69.0125 207.686 69.132C208.369 69.8181 208.998 70.5468 209.57 71.3125L211.19 73.3038V71.3125C211.19 69.1818 211.278 69.0027 211.891 69.0027C212.504 69.0027 212.57 69.0723 212.57 72.4476C212.57 75.305 212.57 75.544 212.362 75.6933C212.293 75.7508 212.212 75.7949 212.124 75.8232C212.036 75.8514 211.943 75.863 211.849 75.8574C211.756 75.8518 211.665 75.8292 211.582 75.7907C211.499 75.7522 211.425 75.6987 211.365 75.6336C211.245 75.5141 210.544 74.638 209.811 73.712C207.862 71.2528 208.059 71.2726 208.059 73.5128C208.059 75.066 208.059 75.5041 207.883 75.6435C207.78 75.7727 207.627 75.8619 207.454 75.8933C207.282 75.9246 207.103 75.8959 206.953 75.8128Z" fill="#F68915"/>
<path d="M200.536 75.7929C200.371 75.6236 200.35 75.2453 200.35 72.4775C200.35 69.7096 200.35 69.3312 200.558 69.1818C200.766 69.0325 201.061 69.0027 202.748 69.0027C204.937 69.0027 205.134 69.0027 205.134 69.61C205.134 70.2174 204.894 70.2272 203.218 70.2571H201.696V71.0038V71.7407H203.01C204.248 71.7407 204.324 71.7406 204.587 71.9994C204.662 72.0505 204.722 72.1167 204.764 72.1927C204.806 72.2687 204.828 72.3526 204.828 72.4376C204.828 72.5226 204.806 72.6065 204.764 72.6825C204.722 72.7585 204.662 72.8246 204.587 72.8756C204.39 73.0548 204.215 73.0748 202.999 73.0748H201.642V73.8713V74.6678H203.164C204.839 74.6678 205.08 74.7774 205.08 75.315C205.08 75.8526 204.926 75.9124 202.671 75.9124C200.93 75.9721 200.744 75.9621 200.536 75.7929Z" fill="#F68915"/>
<path d="M216.948 32.9802C216.009 32.7531 215.156 32.2949 214.484 31.656C213.798 31.0367 213.298 30.2666 213.035 29.4203C212.771 28.574 212.753 27.6802 212.98 26.8254C213.208 25.9706 213.675 25.1838 214.336 24.5412C214.996 23.8986 215.828 23.4221 216.75 23.1576C217.673 22.8932 218.655 22.8498 219.601 23.0318C220.548 23.2137 221.426 23.6149 222.152 24.1963C222.878 24.7777 223.426 25.5196 223.744 26.3503C224.062 27.1811 224.139 28.0724 223.967 28.9379C223.774 29.8917 223.29 30.777 222.57 31.492C221.849 32.2069 220.922 32.7228 219.893 32.9802C218.923 33.1693 217.919 33.1693 216.948 32.9802Z" fill="#F68915"/>
<path d="M217.66 62.3313C216.336 62.2822 215.086 61.764 214.178 60.8877C212.94 59.5037 212.743 58.2193 212.743 51.5087V47.0881L212.459 46.2617C212.045 45.0852 211.261 44.0446 210.205 43.268C209.148 42.4914 207.865 42.0127 206.513 41.8909L205.867 41.8212V31.8548H206.568C207.897 31.9105 209.217 32.0839 210.51 32.3725C213.148 33.0084 215.6 34.1641 217.692 35.7577L218.492 36.375L219.138 35.8473C221.275 34.2156 223.779 33.0295 226.474 32.3725C227.766 32.0839 229.086 31.9105 230.416 31.8548H231.116V41.8112L230.229 41.9307C228.971 42.0863 227.782 42.5501 226.791 43.2727C225.799 43.9952 225.042 44.9493 224.601 46.0327L224.306 46.7197L224.229 52.1958C224.153 58.1696 224.098 58.6773 223.496 59.8821C223.206 60.593 222.672 61.2004 221.974 61.6145C220.665 62.2866 219.145 62.5391 217.66 62.3313Z" fill="#F68915"/>
<path d="M242.833 32.8997C241.799 32.5878 240.887 32.0109 240.206 31.2384C239.524 30.4659 239.103 29.5308 238.992 28.5457C238.881 27.5605 239.086 26.5672 239.582 25.6855C240.078 24.8037 240.843 24.071 241.786 23.5755C242.729 23.08 243.809 22.8429 244.897 22.8928C245.985 22.9426 247.033 23.2772 247.917 23.8563C248.8 24.4354 249.481 25.2344 249.876 26.157C250.272 27.0796 250.366 28.0865 250.147 29.0565C249.91 29.9822 249.408 30.8341 248.69 31.525C247.972 32.216 247.066 32.7214 246.063 32.9893C244.995 33.2045 243.885 33.1737 242.833 32.8997Z" fill="#F68915"/>
<path d="M247.211 62.0524C244.737 61.3056 241.496 58.3685 240.083 55.5708C239.089 53.5596 238.642 51.3603 238.78 49.1589C238.868 48.2261 238.779 47.2867 238.518 46.3811C238.128 45.1775 237.351 44.1071 236.288 43.3072C235.225 42.5072 233.924 42.014 232.55 41.8907L231.904 41.821V31.775L232.999 31.8348C236.656 32.0423 240.162 33.2383 243.067 35.2694C245.971 37.3005 248.143 40.0742 249.303 43.2348C250.168 45.6244 250.233 46.4806 250.201 54.4059C250.201 60.8477 250.201 61.0767 249.938 61.3754C249.795 61.5874 249.613 61.7758 249.401 61.9329C249.063 62.0835 248.695 62.1716 248.32 62.1921C247.944 62.2126 247.567 62.1651 247.211 62.0524Z" fill="#F68915"/>
</svg>
